<svg xmlns="http://www.w3.org/2000/svg" viewBox="-0.415 -0.39 0.83 0.78" fill="none" stroke="#111111" stroke-width="0.02" stroke-linecap="round" stroke-linejoin="round">
<path d="M -0.26 0.35 L -0.26 -0.02 Q -0.26 -0.24 0 -0.24 Q 0.26 -0.24 0.26 -0.02 L 0.26 0.35 Q 0.26 0.35 0 0.35 Q -0.26 0.35 -0.26 0.35 Z" fill="white"/>
<path d="M -0.375 0.28 L -0.375 -0.04 Q -0.375 -0.35 0 -0.35 Q 0.375 -0.35 0.375 -0.04 L 0.375 0.28 Q 0.375 0.31 0.345 0.31 L -0.345 0.31 Q -0.375 0.31 -0.375 0.28 ZM -0.285 0.31 L -0.285 -0.02 Q -0.285 -0.26 0 -0.26 Q 0.285 -0.26 0.285 -0.02 L 0.285 0.31" fill="white"/>
<line x1="-0.34" y1="-0.2" x2="-0.26" y2="-0.13"/>
<line x1="0.34" y1="-0.2" x2="0.26" y2="-0.13"/>
</svg>
